<svg preserveAspectRatio="none" width="100%" height="100%" overflow="visible" style="display: block;" viewBox="0 0 1452 2047" fill="none" xmlns="http://www.w3.org/2000/svg" xmlns:xlink="http://www.w3.org/1999/xlink">
<g id="bg" clip-path="url(#clip0_0_10)">
<rect width="1452" height="2047" fill="white"/>
<g id="Ellipse 3" filter="url(#filter0_f_0_10)">
<ellipse cx="726" cy="882.5" rx="968.15" ry="476.489" fill="url(#paint0_radial_0_10)"/>
</g>
<ellipse id="Ellipse 4" cx="726" cy="877" rx="689.265" ry="472.515" fill="url(#pattern0_0_10)"/>
</g>
<defs>
<filter id="filter0_f_0_10" x="-704.5" y="132.5" width="2861" height="1500" filterUnits="userSpaceOnUse" color-interpolation-filters="sRGB">
<feFlood flood-opacity="0" result="BackgroundImageFix"/>
<feBlend mode="normal" in="SourceGraphic" in2="BackgroundImageFix" result="shape"/>
<feGaussianBlur stdDeviation="45.25" result="effect1_foregroundBlur_0_10"/>
</filter>
<radialGradient id="paint0_radial_0_10" cx="0" cy="0" r="1" gradientUnits="userSpaceOnUse" gradientTransform="translate(726 828.82) rotate(90) scale(713.18 992.931)">
<stop offset="0.264423" stop-color="#E8DDF9"/>
<stop offset="1" stop-color="white" stop-opacity="0"/>
</radialGradient>
<clipPath id="clip0_0_10">
<rect width="1452" height="2047" fill="white"/>
</clipPath>
<pattern id="pattern0_0_10" patternUnits="userSpaceOnUse" patternTransform="matrix(71.68 0 0 35.84 714.935 865.52)" preserveAspectRatio="none" viewBox="21.4229 20.1246 224 112" width="1" height="1">
<use xlink:href="#pattern0_0_10_inner" transform="translate(0 -112)"/>
<use xlink:href="#pattern0_0_10_inner" transform="translate(112 -56)"/>
<g id="pattern0_0_10_inner">
<path id="Star 1" d="M47.4405 26.3434C50.1347 18.0516 61.8653 18.0517 64.5595 26.3434L66.5522 32.4762C67.757 36.1844 71.2126 38.695 75.1117 38.695H81.56C90.2785 38.695 93.9035 49.8516 86.8501 54.9762L81.6333 58.7664C78.4789 61.0582 77.159 65.1205 78.3638 68.8288L80.3565 74.9615C83.0506 83.2533 73.5603 90.1484 66.5069 85.0238L61.2901 81.2336C58.1357 78.9418 53.8643 78.9418 50.7099 81.2336L45.4931 85.0238C38.4397 90.1484 28.9494 83.2533 31.6435 74.9615L33.6362 68.8288C34.841 65.1205 33.5211 61.0582 30.3667 58.7664L25.1499 54.9762C18.0965 49.8516 21.7215 38.695 30.44 38.695H36.8883C40.7874 38.695 44.243 36.1844 45.4478 32.4762L47.4405 26.3434Z" fill="url(#paint1_radial_0_10)"/>
</g>
<use xlink:href="#pattern0_0_10_inner" transform="translate(112 56)"/>
</pattern><radialGradient id="paint1_radial_0_10" cx="0" cy="0" r="1" gradientUnits="userSpaceOnUse" gradientTransform="translate(56 56) rotate(90) scale(56)">
<stop stop-color="white"/>
<stop offset="0.653846" stop-color="white" stop-opacity="0"/>
</radialGradient>
</defs>
</svg>
