<svg preserveAspectRatio="none" overflow="visible" style="display: block;" width="1782" height="1032" viewBox="0 0 1782 1032" fill="none" xmlns="http://www.w3.org/2000/svg">
<g id="Group 38">
<rect id="Rectangle 88" x="377" y="184" width="23" height="241" fill="#515151"/>
<rect id="Rectangle 109" x="1724" y="184" width="23" height="241" fill="#515151"/>
<rect id="Rectangle 95" x="377" y="715" width="23" height="313" fill="#515151"/>
<rect id="Rectangle 108" x="1724" y="715" width="23" height="313" fill="#515151"/>
<line id="Line 13" x1="377.5" y1="184" x2="377.5" y2="1028" stroke="#515151"/>
<line id="Line 7" x1="342" y1="115.5" x2="1782" y2="115.5" stroke="#515151"/>
<line id="Line 20" x1="1782" y1="184.5" y2="184.5" stroke="#515151"/>
<line id="Line 29" x1="1782" y1="425.5" x2="342" y2="425.5" stroke="#515151"/>
<line id="Line 31" x1="1782" y1="607.5" x2="342" y2="607.5" stroke="#515151"/>
<line id="Line 25" x1="1747.5" y1="184" x2="1747.5" y2="1028" stroke="#515151"/>
<line id="Line 26" x1="400.5" y1="4" x2="400.5" y2="1028" stroke="#515151"/>
<line id="Line 30" x1="1724.5" y1="4" x2="1724.5" y2="1028" stroke="#515151"/>
<g id="Frame 3465248">
<line id="Line 9" x1="826.5" y1="2.18557e-08" x2="826.5" y2="1032" stroke="#515151"/>
<line id="Line 10" x1="849.5" y1="2.18557e-08" x2="849.5" y2="1032" stroke="#515151"/>
</g>
<g id="Frame 3465247">
<line id="Line 22" x1="1275.5" y1="2.18557e-08" x2="1275.5" y2="1032" stroke="#515151"/>
<line id="Line 23" x1="1298.5" y1="2.18557e-08" x2="1298.5" y2="1032" stroke="#515151"/>
</g>
<rect id="Rectangle 104" x="826" y="4" width="23" height="112" fill="#515151"/>
<rect id="Rectangle 107" x="1276" y="4" width="23" height="112" fill="#515151"/>
</g>
</svg>
