<svg preserveAspectRatio="none" width="100%" height="100%" overflow="visible" style="display: block;" viewBox="0 0 27.0774 25.9208" fill="none" xmlns="http://www.w3.org/2000/svg">
<path id="Star 1" d="M9.09078 3.2037C10.5076 -1.0679 16.5697 -1.0679 17.9866 3.2037V3.2037C18.6137 5.09422 20.4148 6.37742 22.4066 6.37742V6.37742C26.8557 6.37742 28.8138 12.0895 25.1889 14.6693V14.6693C23.5544 15.8327 22.8713 17.9306 23.503 19.8348V19.8348C24.9035 24.0573 20.0982 27.6295 16.4738 25.05L16.2571 24.8957C14.6298 23.7376 12.4475 23.7376 10.8203 24.8957L10.6035 25.05C6.97914 27.6295 2.17389 24.0573 3.57442 19.8348V19.8348C4.20605 17.9306 3.523 15.8327 1.88843 14.6693V14.6693C-1.73638 12.0895 0.221685 6.37742 4.67081 6.37742V6.37742C6.66261 6.37742 8.46372 5.09422 9.09078 3.2037V3.2037Z" fill="url(#paint0_radial_0_13)"/>
<defs>
<radialGradient id="paint0_radial_0_13" cx="0" cy="0" r="1" gradientUnits="userSpaceOnUse" gradientTransform="translate(13.5387 13.7938) rotate(90) scale(24 24.5)">
<stop offset="0.221154" stop-color="#E7DDF9"/>
<stop offset="1" stop-color="white" stop-opacity="0"/>
</radialGradient>
</defs>
</svg>
