<svg preserveAspectRatio="none" width="100%" height="100%" overflow="visible" style="display: block;" viewBox="0 0 113.646 4.90288" fill="none" xmlns="http://www.w3.org/2000/svg">
<path id="Line 5" d="M0.498445 2.37514C0.223162 2.37514 0 2.5983 0 2.87359C0 3.14887 0.223162 3.37203 0.498445 3.37203V2.87359V2.37514ZM0.598445 2.87359L0.608915 2.37514H0.598445V2.87359ZM61.7175 3.3948L62.0164 2.99595L61.7175 3.3948ZM83.0111 3.00317L82.7691 3.43895L83.0111 3.00317ZM93.6579 0.851688L93.5771 1.34354L93.6579 0.851688ZM98.9813 2.60074L99.2016 2.15363L98.9813 2.60074ZM112.718 2.40177L113.127 2.11687L113.109 2.09043L113.087 2.06659L112.718 2.40177ZM113.047 2.87359L112.638 3.15849L112.787 3.37203H113.047V2.87359ZM113.147 3.37203C113.422 3.37203 113.646 3.14887 113.646 2.87359C113.646 2.5983 113.422 2.37514 113.147 2.37514V2.87359V3.37203ZM0.498445 2.87359V3.37203H0.598445V2.87359V2.37514H0.498445V2.87359ZM0.598445 2.87359L0.587978 3.37192C4.06433 3.44494 6.66492 3.62361 8.40446 3.90311L8.48354 3.41098L8.56261 2.91885C6.75323 2.62812 4.09709 2.44852 0.608913 2.37525L0.598445 2.87359ZM8.48354 3.41098L8.40446 3.90311C10.2087 4.19302 12.0137 4.31606 13.8191 4.27201L13.8069 3.77371L13.7948 3.27542C12.0512 3.31796 10.3073 3.19918 8.56261 2.91885L8.48354 3.41098ZM13.8069 3.77371L13.8191 4.27201C15.6572 4.22716 17.4901 3.83714 19.3154 3.10728L19.1303 2.64447L18.9453 2.18165C17.2216 2.87086 15.5056 3.23367 13.7948 3.27542L13.8069 3.77371ZM19.1303 2.64447L19.3154 3.10728C20.966 2.44728 22.6035 2.46889 24.2579 3.17575L24.4537 2.71739L24.6496 2.25903C22.7551 1.44959 20.8436 1.42258 18.9453 2.18165L19.1303 2.64447ZM24.4537 2.71739L24.2579 3.17575C26.1459 3.98242 28.0513 4.04456 29.9475 3.3547L29.7771 2.88629L29.6067 2.41788C27.954 3.01912 26.3105 2.96866 24.6496 2.25903L24.4537 2.71739ZM29.7771 2.88629L29.9475 3.3547C31.6132 2.74873 33.2682 2.74303 34.933 3.33695L35.1005 2.86748L35.268 2.39801C33.3839 1.72591 31.49 1.73274 29.6067 2.41788L29.7771 2.88629ZM35.1005 2.86748L34.933 3.33695C36.87 4.02793 38.8038 3.74692 40.6908 2.55071L40.4239 2.12973L40.157 1.70874C38.4952 2.76223 36.8799 2.97305 35.268 2.39801L35.1005 2.86748ZM40.4239 2.12973L40.6908 2.55071C42.3978 1.46859 44.0771 0.962589 45.7365 0.998696L45.7473 0.500369L45.7582 0.00204182C43.8686 -0.0390735 41.9989 0.541159 40.157 1.70874L40.4239 2.12973ZM45.7473 0.500369L45.7365 0.998696C47.4766 1.03656 49.2177 1.25308 50.9603 1.64883L51.0707 1.16276L51.1811 0.676696C49.3748 0.266475 47.567 0.0414007 45.7582 0.00204182L45.7473 0.500369ZM51.0707 1.16276L50.9603 1.64883C52.7811 2.06234 54.6043 2.20669 56.4284 2.08077L56.3941 1.58351L56.3598 1.08625C54.635 1.20531 52.9092 1.06916 51.1811 0.676696L51.0707 1.16276ZM56.3941 1.58351L56.4284 2.08077C58.0563 1.9684 59.7153 2.51704 61.4186 3.79364L61.7175 3.3948L62.0164 2.99595C60.1707 1.61252 58.2808 0.953639 56.3598 1.08625L56.3941 1.58351ZM61.7175 3.3948L61.4186 3.79364C62.3693 4.50627 63.3572 4.89355 64.3747 4.90271C65.3927 4.91188 66.3824 4.54202 67.3352 3.84501L67.0409 3.44271L66.7466 3.04042C65.925 3.64148 65.1401 3.91267 64.3837 3.90586C63.6268 3.89905 62.8402 3.61334 62.0164 2.99595L61.7175 3.3948ZM67.0409 3.44271L67.3352 3.84501C68.1696 3.23458 68.9787 2.89517 69.7648 2.79625C70.5476 2.69776 71.3388 2.83363 72.1486 3.22227L72.3643 2.77289L72.5799 2.32351C71.6154 1.86063 70.6321 1.68238 69.6404 1.80716C68.652 1.93152 67.6866 2.35278 66.7466 3.04042L67.0409 3.44271ZM72.3643 2.77289L72.1486 3.22227C74.0584 4.1387 75.9906 4.14434 77.9013 3.23809L77.6877 2.78774L77.4741 2.33738C75.8359 3.11438 74.2191 3.11012 72.5799 2.32351L72.3643 2.77289ZM77.6877 2.78774L77.9013 3.23809C79.5248 2.46808 81.1297 2.52868 82.7691 3.43895L83.0111 3.00317L83.253 2.56739C81.3435 1.50717 79.3995 1.42415 77.4741 2.33738L77.6877 2.78774ZM83.0111 3.00317L82.7691 3.43895C83.733 3.97414 84.7219 4.20361 85.7245 4.09899C86.7233 3.99476 87.6952 3.56331 88.6371 2.84376L88.3345 2.44767L88.0319 2.05158C87.1993 2.68762 86.3967 3.02654 85.621 3.10748C84.8492 3.18803 84.0636 3.01745 83.253 2.56739L83.0111 3.00317ZM88.3345 2.44767L88.6371 2.84376C90.3306 1.55002 91.9696 1.07938 93.5771 1.34354L93.6579 0.851688L93.7387 0.35984C91.7973 0.0408096 89.8873 0.63416 88.0319 2.05158L88.3345 2.44767ZM93.6579 0.851688L93.5771 1.34354C95.2985 1.62641 97.0262 2.19295 98.7609 3.04784L98.9813 2.60074L99.2016 2.15363C97.3875 1.25964 95.5662 0.660146 93.7387 0.35984L93.6579 0.851688ZM98.9813 2.60074L98.7609 3.04784C100.608 3.95796 102.473 4.3405 104.348 4.17731L104.305 3.68074L104.261 3.18417C102.588 3.32986 100.904 2.99241 99.2016 2.15363L98.9813 2.60074ZM104.305 3.68074L104.348 4.17731C106.155 4.02001 107.961 3.68361 109.765 3.16883L109.628 2.68952L109.491 2.21021C107.746 2.70817 106.003 3.03258 104.261 3.18417L104.305 3.68074ZM109.628 2.68952L109.765 3.16883C110.642 2.91863 111.308 2.77782 111.778 2.7341C112.013 2.71217 112.177 2.71696 112.283 2.73453C112.396 2.75331 112.386 2.77686 112.35 2.73696L112.718 2.40177L113.087 2.06659C112.908 1.86941 112.662 1.787 112.446 1.75112C112.223 1.71403 111.965 1.71548 111.685 1.7415C111.125 1.79371 110.389 1.95403 109.491 2.21021L109.628 2.68952ZM112.718 2.40177L112.309 2.68668L112.638 3.15849L113.047 2.87359L113.456 2.58868L113.127 2.11687L112.718 2.40177ZM113.047 2.87359V3.37203H113.147V2.87359V2.37514H113.047V2.87359Z" fill="black"/>
</svg>
